<mxfile host="app.diagrams.net" agent="Mozilla/5.0 (X11; Ubuntu; Linux x86_64; rv:130.0) Gecko/20100101 Firefox/130.0" version="24.7.15">
  <diagram name="Page-1" id="eTV_7YEsDZQL0v8XgNlW">
    <mxGraphModel dx="1376" dy="795" grid="1" gridSize="10" guides="1" tooltips="1" connect="1" arrows="1" fold="1" page="1" pageScale="1" pageWidth="850" pageHeight="1100" math="0" shadow="0">
      <root>
        <mxCell id="0" />
        <mxCell id="1" parent="0" />
        <mxCell id="pF6RH-sHoKkm_YnTqQ9y-16" style="edgeStyle=orthogonalEdgeStyle;curved=1;rounded=0;orthogonalLoop=1;jettySize=auto;html=1;exitX=1;exitY=0.5;exitDx=0;exitDy=0;entryX=0;entryY=0.5;entryDx=0;entryDy=0;strokeColor=default;align=center;verticalAlign=middle;fontFamily=Helvetica;fontSize=11;fontColor=default;labelBackgroundColor=default;endArrow=none;endFill=0;" parent="1" source="pF6RH-sHoKkm_YnTqQ9y-3" target="pF6RH-sHoKkm_YnTqQ9y-15" edge="1">
          <mxGeometry relative="1" as="geometry" />
        </mxCell>
        <mxCell id="pF6RH-sHoKkm_YnTqQ9y-3" value="&lt;b&gt;{&lt;/b&gt;" style="rounded=0;whiteSpace=wrap;html=1;glass=0;" parent="1" vertex="1">
          <mxGeometry x="370" y="580" width="40" height="40" as="geometry" />
        </mxCell>
        <mxCell id="pF6RH-sHoKkm_YnTqQ9y-8" style="edgeStyle=orthogonalEdgeStyle;rounded=0;orthogonalLoop=1;jettySize=auto;html=1;exitX=1;exitY=0.5;exitDx=0;exitDy=0;entryX=0;entryY=0.5;entryDx=0;entryDy=0;strokeColor=default;align=center;verticalAlign=middle;fontFamily=Helvetica;fontSize=11;fontColor=default;labelBackgroundColor=default;endArrow=none;endFill=0;curved=1;" parent="1" source="pF6RH-sHoKkm_YnTqQ9y-5" target="pF6RH-sHoKkm_YnTqQ9y-7" edge="1">
          <mxGeometry relative="1" as="geometry" />
        </mxCell>
        <mxCell id="pF6RH-sHoKkm_YnTqQ9y-5" value="&lt;b&gt;,&lt;/b&gt;" style="rounded=0;whiteSpace=wrap;html=1;" parent="1" vertex="1">
          <mxGeometry x="667.5" y="640" width="45" height="40" as="geometry" />
        </mxCell>
        <mxCell id="jcl1m7gDw0Rb6p7N4DIR-13" style="edgeStyle=orthogonalEdgeStyle;rounded=0;orthogonalLoop=1;jettySize=auto;html=1;exitX=1;exitY=0.5;exitDx=0;exitDy=0;entryX=0;entryY=0.5;entryDx=0;entryDy=0;curved=1;endArrow=none;endFill=0;" edge="1" parent="1" source="pF6RH-sHoKkm_YnTqQ9y-7" target="pF6RH-sHoKkm_YnTqQ9y-9">
          <mxGeometry relative="1" as="geometry" />
        </mxCell>
        <mxCell id="pF6RH-sHoKkm_YnTqQ9y-7" value="&lt;b&gt;String&lt;/b&gt;" style="rounded=0;whiteSpace=wrap;html=1;" parent="1" vertex="1">
          <mxGeometry x="720" y="640" width="50" height="40" as="geometry" />
        </mxCell>
        <mxCell id="jcl1m7gDw0Rb6p7N4DIR-6" style="edgeStyle=orthogonalEdgeStyle;rounded=0;orthogonalLoop=1;jettySize=auto;html=1;exitX=1;exitY=0.5;exitDx=0;exitDy=0;entryX=0;entryY=0.5;entryDx=0;entryDy=0;curved=1;endArrow=none;endFill=0;" edge="1" parent="1" source="pF6RH-sHoKkm_YnTqQ9y-9" target="jcl1m7gDw0Rb6p7N4DIR-2">
          <mxGeometry relative="1" as="geometry" />
        </mxCell>
        <mxCell id="jcl1m7gDw0Rb6p7N4DIR-7" style="edgeStyle=orthogonalEdgeStyle;rounded=0;orthogonalLoop=1;jettySize=auto;html=1;exitX=1;exitY=0.5;exitDx=0;exitDy=0;entryX=0;entryY=0.5;entryDx=0;entryDy=0;curved=1;endArrow=none;endFill=0;" edge="1" parent="1" source="pF6RH-sHoKkm_YnTqQ9y-9" target="jcl1m7gDw0Rb6p7N4DIR-3">
          <mxGeometry relative="1" as="geometry" />
        </mxCell>
        <mxCell id="jcl1m7gDw0Rb6p7N4DIR-10" style="edgeStyle=orthogonalEdgeStyle;rounded=0;orthogonalLoop=1;jettySize=auto;html=1;exitX=1;exitY=0.5;exitDx=0;exitDy=0;entryX=0;entryY=0.5;entryDx=0;entryDy=0;curved=1;endArrow=none;endFill=0;" edge="1" parent="1" source="pF6RH-sHoKkm_YnTqQ9y-9" target="jcl1m7gDw0Rb6p7N4DIR-8">
          <mxGeometry relative="1" as="geometry" />
        </mxCell>
        <mxCell id="pF6RH-sHoKkm_YnTqQ9y-9" value="&lt;b&gt;:&lt;/b&gt;" style="rounded=0;whiteSpace=wrap;html=1;" parent="1" vertex="1">
          <mxGeometry x="780" y="640" width="45" height="40" as="geometry" />
        </mxCell>
        <mxCell id="jcl1m7gDw0Rb6p7N4DIR-140" style="edgeStyle=orthogonalEdgeStyle;shape=connector;curved=1;rounded=0;orthogonalLoop=1;jettySize=auto;html=1;exitX=1;exitY=0.5;exitDx=0;exitDy=0;entryX=0;entryY=0.5;entryDx=0;entryDy=0;strokeColor=default;align=center;verticalAlign=middle;fontFamily=Helvetica;fontSize=11;fontColor=default;labelBackgroundColor=default;endArrow=none;endFill=0;" edge="1" parent="1" source="pF6RH-sHoKkm_YnTqQ9y-15" target="jcl1m7gDw0Rb6p7N4DIR-32">
          <mxGeometry relative="1" as="geometry">
            <Array as="points">
              <mxPoint x="510" y="600" />
              <mxPoint x="510" y="660" />
            </Array>
          </mxGeometry>
        </mxCell>
        <mxCell id="pF6RH-sHoKkm_YnTqQ9y-15" value="&lt;b&gt;Miscspace&lt;/b&gt;" style="rounded=0;whiteSpace=wrap;html=1;" parent="1" vertex="1">
          <mxGeometry x="420" y="582.5" width="80" height="35" as="geometry" />
        </mxCell>
        <mxCell id="jcl1m7gDw0Rb6p7N4DIR-130" style="edgeStyle=orthogonalEdgeStyle;shape=connector;curved=1;rounded=0;orthogonalLoop=1;jettySize=auto;html=1;exitX=1;exitY=0.5;exitDx=0;exitDy=0;entryX=0;entryY=0.5;entryDx=0;entryDy=0;strokeColor=default;align=center;verticalAlign=middle;fontFamily=Helvetica;fontSize=11;fontColor=default;labelBackgroundColor=default;endArrow=none;endFill=0;" edge="1" parent="1" source="pF6RH-sHoKkm_YnTqQ9y-18" target="jcl1m7gDw0Rb6p7N4DIR-129">
          <mxGeometry relative="1" as="geometry" />
        </mxCell>
        <mxCell id="pF6RH-sHoKkm_YnTqQ9y-18" value="&lt;b&gt;}&lt;/b&gt;" style="rounded=0;whiteSpace=wrap;html=1;glass=0;" parent="1" vertex="1">
          <mxGeometry x="1250" y="580" width="40" height="40" as="geometry" />
        </mxCell>
        <mxCell id="jcl1m7gDw0Rb6p7N4DIR-16" style="edgeStyle=orthogonalEdgeStyle;rounded=0;orthogonalLoop=1;jettySize=auto;html=1;exitX=1;exitY=0.5;exitDx=0;exitDy=0;entryX=0;entryY=0.5;entryDx=0;entryDy=0;curved=1;endArrow=none;endFill=0;" edge="1" parent="1" source="jcl1m7gDw0Rb6p7N4DIR-2" target="jcl1m7gDw0Rb6p7N4DIR-15">
          <mxGeometry relative="1" as="geometry" />
        </mxCell>
        <mxCell id="jcl1m7gDw0Rb6p7N4DIR-2" value="&lt;b&gt;-&lt;/b&gt;" style="rounded=0;whiteSpace=wrap;html=1;" vertex="1" parent="1">
          <mxGeometry x="905" y="690" width="45" height="40" as="geometry" />
        </mxCell>
        <mxCell id="jcl1m7gDw0Rb6p7N4DIR-25" style="edgeStyle=orthogonalEdgeStyle;rounded=0;orthogonalLoop=1;jettySize=auto;html=1;exitX=1;exitY=0.5;exitDx=0;exitDy=0;entryX=0;entryY=0.5;entryDx=0;entryDy=0;curved=1;endArrow=none;endFill=0;" edge="1" parent="1" source="jcl1m7gDw0Rb6p7N4DIR-3" target="jcl1m7gDw0Rb6p7N4DIR-24">
          <mxGeometry relative="1" as="geometry" />
        </mxCell>
        <mxCell id="jcl1m7gDw0Rb6p7N4DIR-3" value="&lt;b&gt;[&lt;/b&gt;" style="rounded=0;whiteSpace=wrap;html=1;" vertex="1" parent="1">
          <mxGeometry x="905" y="760" width="45" height="40" as="geometry" />
        </mxCell>
        <mxCell id="jcl1m7gDw0Rb6p7N4DIR-8" value="&lt;b&gt;Serialization of node&lt;/b&gt;" style="rounded=0;whiteSpace=wrap;html=1;" vertex="1" parent="1">
          <mxGeometry x="1185" y="640" width="80" height="40" as="geometry" />
        </mxCell>
        <mxCell id="jcl1m7gDw0Rb6p7N4DIR-19" style="edgeStyle=orthogonalEdgeStyle;rounded=0;orthogonalLoop=1;jettySize=auto;html=1;exitX=1;exitY=0.5;exitDx=0;exitDy=0;entryX=0;entryY=0.5;entryDx=0;entryDy=0;curved=1;endArrow=none;endFill=0;" edge="1" parent="1" source="jcl1m7gDw0Rb6p7N4DIR-15" target="jcl1m7gDw0Rb6p7N4DIR-17">
          <mxGeometry relative="1" as="geometry" />
        </mxCell>
        <mxCell id="jcl1m7gDw0Rb6p7N4DIR-15" value="&lt;b&gt;8 bit meta&lt;/b&gt;" style="rounded=0;whiteSpace=wrap;html=1;" vertex="1" parent="1">
          <mxGeometry x="965" y="690" width="45" height="40" as="geometry" />
        </mxCell>
        <mxCell id="jcl1m7gDw0Rb6p7N4DIR-21" style="edgeStyle=orthogonalEdgeStyle;rounded=0;orthogonalLoop=1;jettySize=auto;html=1;exitX=1;exitY=0.5;exitDx=0;exitDy=0;entryX=0;entryY=0.5;entryDx=0;entryDy=0;curved=1;endArrow=none;endFill=0;" edge="1" parent="1" source="jcl1m7gDw0Rb6p7N4DIR-17" target="jcl1m7gDw0Rb6p7N4DIR-20">
          <mxGeometry relative="1" as="geometry" />
        </mxCell>
        <mxCell id="jcl1m7gDw0Rb6p7N4DIR-17" value="&lt;b&gt;16 bit ELEM_SIZE&lt;br&gt;&lt;/b&gt;" style="rounded=0;whiteSpace=wrap;html=1;" vertex="1" parent="1">
          <mxGeometry x="1025" y="690" width="80" height="40" as="geometry" />
        </mxCell>
        <mxCell id="jcl1m7gDw0Rb6p7N4DIR-23" style="edgeStyle=orthogonalEdgeStyle;rounded=0;orthogonalLoop=1;jettySize=auto;html=1;exitX=1;exitY=0.5;exitDx=0;exitDy=0;entryX=0;entryY=0.5;entryDx=0;entryDy=0;curved=1;endArrow=none;endFill=0;" edge="1" parent="1" source="jcl1m7gDw0Rb6p7N4DIR-20" target="jcl1m7gDw0Rb6p7N4DIR-22">
          <mxGeometry relative="1" as="geometry" />
        </mxCell>
        <mxCell id="jcl1m7gDw0Rb6p7N4DIR-20" value="&lt;b&gt;32 bit SIZE_T&lt;br&gt;&lt;/b&gt;" style="rounded=0;whiteSpace=wrap;html=1;" vertex="1" parent="1">
          <mxGeometry x="1115" y="690" width="70" height="40" as="geometry" />
        </mxCell>
        <mxCell id="jcl1m7gDw0Rb6p7N4DIR-22" value="&lt;b&gt;SIZE_T byte data&lt;br&gt;&lt;/b&gt;" style="rounded=0;whiteSpace=wrap;html=1;" vertex="1" parent="1">
          <mxGeometry x="1195" y="690" width="70" height="40" as="geometry" />
        </mxCell>
        <mxCell id="jcl1m7gDw0Rb6p7N4DIR-37" style="edgeStyle=orthogonalEdgeStyle;rounded=0;orthogonalLoop=1;jettySize=auto;html=1;exitX=1;exitY=0.5;exitDx=0;exitDy=0;entryX=0;entryY=0.5;entryDx=0;entryDy=0;curved=1;endArrow=none;endFill=0;" edge="1" parent="1" source="jcl1m7gDw0Rb6p7N4DIR-24" target="jcl1m7gDw0Rb6p7N4DIR-36">
          <mxGeometry relative="1" as="geometry" />
        </mxCell>
        <mxCell id="jcl1m7gDw0Rb6p7N4DIR-24" value="&lt;b&gt;Serialization of node&lt;/b&gt;" style="rounded=0;whiteSpace=wrap;html=1;" vertex="1" parent="1">
          <mxGeometry x="1035" y="760" width="80" height="40" as="geometry" />
        </mxCell>
        <mxCell id="jcl1m7gDw0Rb6p7N4DIR-34" style="edgeStyle=orthogonalEdgeStyle;rounded=0;orthogonalLoop=1;jettySize=auto;html=1;exitX=1;exitY=0.5;exitDx=0;exitDy=0;entryX=0;entryY=0.5;entryDx=0;entryDy=0;curved=1;endArrow=none;endFill=0;" edge="1" parent="1" source="jcl1m7gDw0Rb6p7N4DIR-131" target="pF6RH-sHoKkm_YnTqQ9y-5">
          <mxGeometry relative="1" as="geometry" />
        </mxCell>
        <mxCell id="jcl1m7gDw0Rb6p7N4DIR-32" value="&lt;b&gt;Miscspace&lt;/b&gt;" style="rounded=0;whiteSpace=wrap;html=1;" vertex="1" parent="1">
          <mxGeometry x="540" y="640" width="80" height="40" as="geometry" />
        </mxCell>
        <mxCell id="jcl1m7gDw0Rb6p7N4DIR-36" value="&lt;b&gt;]&lt;/b&gt;" style="rounded=0;whiteSpace=wrap;html=1;" vertex="1" parent="1">
          <mxGeometry x="1220" y="760" width="45" height="40" as="geometry" />
        </mxCell>
        <mxCell id="jcl1m7gDw0Rb6p7N4DIR-46" value="&lt;font size=&quot;1&quot;&gt;&lt;b style=&quot;font-size: 17px;&quot;&gt;Serialization of node&lt;/b&gt;&lt;/font&gt;" style="rounded=0;whiteSpace=wrap;html=1;" vertex="1" parent="1">
          <mxGeometry x="785" y="470" width="140" height="50" as="geometry" />
        </mxCell>
        <mxCell id="jcl1m7gDw0Rb6p7N4DIR-57" value="&lt;font size=&quot;1&quot;&gt;&lt;b style=&quot;font-size: 22px;&quot;&gt;String&lt;/b&gt;&lt;/font&gt;" style="rounded=0;whiteSpace=wrap;html=1;" vertex="1" parent="1">
          <mxGeometry x="802.5" y="970" width="105" height="60" as="geometry" />
        </mxCell>
        <mxCell id="jcl1m7gDw0Rb6p7N4DIR-58" value="&lt;b&gt;Any character storable in a string except &quot;:&quot; and &quot;\&quot;&lt;br&gt;&lt;/b&gt;" style="rounded=0;whiteSpace=wrap;html=1;" vertex="1" parent="1">
          <mxGeometry x="795" y="1047.5" width="125" height="65" as="geometry" />
        </mxCell>
        <mxCell id="jcl1m7gDw0Rb6p7N4DIR-62" style="edgeStyle=orthogonalEdgeStyle;shape=connector;curved=1;rounded=0;orthogonalLoop=1;jettySize=auto;html=1;exitX=1;exitY=0.5;exitDx=0;exitDy=0;entryX=0;entryY=0.5;entryDx=0;entryDy=0;strokeColor=default;align=center;verticalAlign=middle;fontFamily=Helvetica;fontSize=11;fontColor=default;labelBackgroundColor=default;endArrow=none;endFill=0;" edge="1" parent="1" source="jcl1m7gDw0Rb6p7N4DIR-60" target="jcl1m7gDw0Rb6p7N4DIR-61">
          <mxGeometry relative="1" as="geometry" />
        </mxCell>
        <mxCell id="jcl1m7gDw0Rb6p7N4DIR-95" style="edgeStyle=orthogonalEdgeStyle;shape=connector;curved=1;rounded=0;orthogonalLoop=1;jettySize=auto;html=1;exitX=1;exitY=0.5;exitDx=0;exitDy=0;entryX=0;entryY=0.5;entryDx=0;entryDy=0;strokeColor=default;align=center;verticalAlign=middle;fontFamily=Helvetica;fontSize=11;fontColor=default;labelBackgroundColor=default;endArrow=none;endFill=0;" edge="1" parent="1" source="jcl1m7gDw0Rb6p7N4DIR-60" target="jcl1m7gDw0Rb6p7N4DIR-71">
          <mxGeometry relative="1" as="geometry">
            <Array as="points">
              <mxPoint x="843" y="1150" />
              <mxPoint x="850" y="1150" />
              <mxPoint x="850" y="1210" />
              <mxPoint x="863" y="1210" />
            </Array>
          </mxGeometry>
        </mxCell>
        <mxCell id="jcl1m7gDw0Rb6p7N4DIR-60" value="&lt;b&gt;\&lt;/b&gt;" style="rounded=0;whiteSpace=wrap;html=1;" vertex="1" parent="1">
          <mxGeometry x="795" y="1120" width="47.5" height="50" as="geometry" />
        </mxCell>
        <mxCell id="jcl1m7gDw0Rb6p7N4DIR-61" value="&lt;b&gt;:&lt;/b&gt;" style="rounded=0;whiteSpace=wrap;html=1;" vertex="1" parent="1">
          <mxGeometry x="872.5" y="1120" width="47.5" height="50" as="geometry" />
        </mxCell>
        <mxCell id="jcl1m7gDw0Rb6p7N4DIR-64" value="&lt;b&gt;End&lt;/b&gt;" style="rounded=0;whiteSpace=wrap;html=1;" vertex="1" parent="1">
          <mxGeometry x="1110" y="1055" width="60" height="50" as="geometry" />
        </mxCell>
        <mxCell id="jcl1m7gDw0Rb6p7N4DIR-66" value="&lt;b&gt;Begin&lt;/b&gt;" style="rounded=0;whiteSpace=wrap;html=1;" vertex="1" parent="1">
          <mxGeometry x="530" y="1050" width="60" height="60" as="geometry" />
        </mxCell>
        <mxCell id="jcl1m7gDw0Rb6p7N4DIR-71" value="&lt;b&gt;Any printable character exept &quot;:&quot;&lt;br&gt;&lt;/b&gt;" style="rounded=0;whiteSpace=wrap;html=1;" vertex="1" parent="1">
          <mxGeometry x="862.5" y="1180" width="57.5" height="60" as="geometry" />
        </mxCell>
        <mxCell id="jcl1m7gDw0Rb6p7N4DIR-93" style="edgeStyle=orthogonalEdgeStyle;shape=connector;curved=1;rounded=0;orthogonalLoop=1;jettySize=auto;html=1;exitX=1;exitY=0.5;exitDx=0;exitDy=0;exitPerimeter=0;entryX=0;entryY=0.5;entryDx=0;entryDy=0;strokeColor=default;align=center;verticalAlign=middle;fontFamily=Helvetica;fontSize=11;fontColor=default;labelBackgroundColor=default;endArrow=none;endFill=0;" edge="1" parent="1" source="jcl1m7gDw0Rb6p7N4DIR-84" target="jcl1m7gDw0Rb6p7N4DIR-58">
          <mxGeometry relative="1" as="geometry" />
        </mxCell>
        <mxCell id="jcl1m7gDw0Rb6p7N4DIR-94" style="edgeStyle=orthogonalEdgeStyle;shape=connector;curved=1;rounded=0;orthogonalLoop=1;jettySize=auto;html=1;exitX=1;exitY=0.5;exitDx=0;exitDy=0;exitPerimeter=0;entryX=0;entryY=0.5;entryDx=0;entryDy=0;strokeColor=default;align=center;verticalAlign=middle;fontFamily=Helvetica;fontSize=11;fontColor=default;labelBackgroundColor=default;endArrow=none;endFill=0;" edge="1" parent="1" source="jcl1m7gDw0Rb6p7N4DIR-84" target="jcl1m7gDw0Rb6p7N4DIR-60">
          <mxGeometry relative="1" as="geometry" />
        </mxCell>
        <mxCell id="jcl1m7gDw0Rb6p7N4DIR-84" value="" style="line;strokeWidth=2;html=1;fontFamily=Helvetica;fontSize=11;fontColor=default;labelBackgroundColor=default;" vertex="1" parent="1">
          <mxGeometry x="650" y="1075" width="80" height="10" as="geometry" />
        </mxCell>
        <mxCell id="jcl1m7gDw0Rb6p7N4DIR-98" style="edgeStyle=orthogonalEdgeStyle;shape=connector;curved=1;rounded=0;orthogonalLoop=1;jettySize=auto;html=1;exitX=1;exitY=0.5;exitDx=0;exitDy=0;exitPerimeter=0;entryX=0;entryY=0.5;entryDx=0;entryDy=0;strokeColor=default;align=center;verticalAlign=middle;fontFamily=Helvetica;fontSize=11;fontColor=default;labelBackgroundColor=default;endArrow=none;endFill=0;" edge="1" parent="1" source="jcl1m7gDw0Rb6p7N4DIR-85" target="jcl1m7gDw0Rb6p7N4DIR-64">
          <mxGeometry relative="1" as="geometry" />
        </mxCell>
        <mxCell id="jcl1m7gDw0Rb6p7N4DIR-85" value="" style="line;strokeWidth=2;html=1;fontFamily=Helvetica;fontSize=11;fontColor=default;labelBackgroundColor=default;" vertex="1" parent="1">
          <mxGeometry x="965" y="1075" width="80" height="10" as="geometry" />
        </mxCell>
        <mxCell id="jcl1m7gDw0Rb6p7N4DIR-86" style="edgeStyle=orthogonalEdgeStyle;shape=connector;curved=1;rounded=0;orthogonalLoop=1;jettySize=auto;html=1;exitX=1;exitY=0.5;exitDx=0;exitDy=0;entryX=0;entryY=0.5;entryDx=0;entryDy=0;entryPerimeter=0;strokeColor=default;align=center;verticalAlign=middle;fontFamily=Helvetica;fontSize=11;fontColor=default;labelBackgroundColor=default;endArrow=none;endFill=0;" edge="1" parent="1" source="jcl1m7gDw0Rb6p7N4DIR-58" target="jcl1m7gDw0Rb6p7N4DIR-85">
          <mxGeometry relative="1" as="geometry" />
        </mxCell>
        <mxCell id="jcl1m7gDw0Rb6p7N4DIR-90" style="edgeStyle=orthogonalEdgeStyle;shape=connector;curved=1;rounded=0;orthogonalLoop=1;jettySize=auto;html=1;exitX=1;exitY=0.5;exitDx=0;exitDy=0;entryX=0;entryY=0.5;entryDx=0;entryDy=0;entryPerimeter=0;strokeColor=default;align=center;verticalAlign=middle;fontFamily=Helvetica;fontSize=11;fontColor=default;labelBackgroundColor=default;endArrow=none;endFill=0;" edge="1" parent="1" source="jcl1m7gDw0Rb6p7N4DIR-66" target="jcl1m7gDw0Rb6p7N4DIR-84">
          <mxGeometry relative="1" as="geometry" />
        </mxCell>
        <mxCell id="jcl1m7gDw0Rb6p7N4DIR-96" style="edgeStyle=orthogonalEdgeStyle;shape=connector;curved=1;rounded=0;orthogonalLoop=1;jettySize=auto;html=1;exitX=1;exitY=0.5;exitDx=0;exitDy=0;entryX=0;entryY=0.5;entryDx=0;entryDy=0;entryPerimeter=0;strokeColor=default;align=center;verticalAlign=middle;fontFamily=Helvetica;fontSize=11;fontColor=default;labelBackgroundColor=default;endArrow=none;endFill=0;" edge="1" parent="1" source="jcl1m7gDw0Rb6p7N4DIR-61" target="jcl1m7gDw0Rb6p7N4DIR-85">
          <mxGeometry relative="1" as="geometry" />
        </mxCell>
        <mxCell id="jcl1m7gDw0Rb6p7N4DIR-97" style="edgeStyle=orthogonalEdgeStyle;shape=connector;curved=1;rounded=0;orthogonalLoop=1;jettySize=auto;html=1;exitX=1;exitY=0.5;exitDx=0;exitDy=0;entryX=0;entryY=0.5;entryDx=0;entryDy=0;entryPerimeter=0;strokeColor=default;align=center;verticalAlign=middle;fontFamily=Helvetica;fontSize=11;fontColor=default;labelBackgroundColor=default;endArrow=none;endFill=0;" edge="1" parent="1" source="jcl1m7gDw0Rb6p7N4DIR-71" target="jcl1m7gDw0Rb6p7N4DIR-85">
          <mxGeometry relative="1" as="geometry" />
        </mxCell>
        <mxCell id="jcl1m7gDw0Rb6p7N4DIR-99" style="edgeStyle=orthogonalEdgeStyle;shape=connector;curved=1;rounded=0;orthogonalLoop=1;jettySize=auto;html=1;exitX=1;exitY=0.5;exitDx=0;exitDy=0;exitPerimeter=0;entryX=0;entryY=0.5;entryDx=0;entryDy=0;entryPerimeter=0;strokeColor=default;align=center;verticalAlign=middle;fontFamily=Helvetica;fontSize=11;fontColor=default;labelBackgroundColor=default;endArrow=none;endFill=0;endSize=6;startSize=6;" edge="1" parent="1" source="jcl1m7gDw0Rb6p7N4DIR-85" target="jcl1m7gDw0Rb6p7N4DIR-84">
          <mxGeometry relative="1" as="geometry">
            <Array as="points">
              <mxPoint x="1065" y="1080" />
              <mxPoint x="1065" y="1280" />
              <mxPoint x="630" y="1280" />
              <mxPoint x="630" y="1080" />
            </Array>
          </mxGeometry>
        </mxCell>
        <mxCell id="jcl1m7gDw0Rb6p7N4DIR-100" value="&lt;font size=&quot;1&quot;&gt;&lt;b style=&quot;font-size: 18px;&quot;&gt;Miscspace&lt;/b&gt;&lt;/font&gt;" style="rounded=0;whiteSpace=wrap;html=1;" vertex="1" parent="1">
          <mxGeometry x="810" y="1400" width="105" height="60" as="geometry" />
        </mxCell>
        <mxCell id="jcl1m7gDw0Rb6p7N4DIR-120" style="edgeStyle=orthogonalEdgeStyle;shape=connector;curved=1;rounded=0;orthogonalLoop=1;jettySize=auto;html=1;exitX=1;exitY=0.5;exitDx=0;exitDy=0;entryX=0;entryY=0.5;entryDx=0;entryDy=0;strokeColor=default;align=center;verticalAlign=middle;fontFamily=Helvetica;fontSize=11;fontColor=default;labelBackgroundColor=default;endArrow=none;endFill=0;" edge="1" parent="1" source="jcl1m7gDw0Rb6p7N4DIR-101" target="jcl1m7gDw0Rb6p7N4DIR-106">
          <mxGeometry relative="1" as="geometry" />
        </mxCell>
        <mxCell id="jcl1m7gDw0Rb6p7N4DIR-101" value="&lt;b&gt;Any 8-bit data unit except following state-changing Flag(s) &lt;br&gt;&lt;/b&gt;" style="rounded=0;whiteSpace=wrap;html=1;" vertex="1" parent="1">
          <mxGeometry x="800" y="1470" width="125" height="65" as="geometry" />
        </mxCell>
        <mxCell id="jcl1m7gDw0Rb6p7N4DIR-106" value="&lt;b&gt;End&lt;/b&gt;" style="rounded=0;whiteSpace=wrap;html=1;" vertex="1" parent="1">
          <mxGeometry x="1060" y="1477.5" width="60" height="50" as="geometry" />
        </mxCell>
        <mxCell id="jcl1m7gDw0Rb6p7N4DIR-119" style="edgeStyle=orthogonalEdgeStyle;shape=connector;curved=1;rounded=0;orthogonalLoop=1;jettySize=auto;html=1;exitX=1;exitY=0.5;exitDx=0;exitDy=0;entryX=0;entryY=0.5;entryDx=0;entryDy=0;strokeColor=default;align=center;verticalAlign=middle;fontFamily=Helvetica;fontSize=11;fontColor=default;labelBackgroundColor=default;endArrow=none;endFill=0;" edge="1" parent="1" source="jcl1m7gDw0Rb6p7N4DIR-107" target="jcl1m7gDw0Rb6p7N4DIR-101">
          <mxGeometry relative="1" as="geometry" />
        </mxCell>
        <mxCell id="jcl1m7gDw0Rb6p7N4DIR-107" value="&lt;b&gt;Begin&lt;/b&gt;" style="rounded=0;whiteSpace=wrap;html=1;" vertex="1" parent="1">
          <mxGeometry x="620" y="1472.5" width="60" height="60" as="geometry" />
        </mxCell>
        <mxCell id="jcl1m7gDw0Rb6p7N4DIR-121" style="edgeStyle=orthogonalEdgeStyle;shape=connector;curved=1;rounded=0;orthogonalLoop=1;jettySize=auto;html=1;exitX=1;exitY=0.5;exitDx=0;exitDy=0;entryX=0;entryY=0.5;entryDx=0;entryDy=0;strokeColor=default;align=center;verticalAlign=middle;fontFamily=Helvetica;fontSize=11;fontColor=default;labelBackgroundColor=default;endArrow=none;endFill=0;" edge="1" parent="1" source="jcl1m7gDw0Rb6p7N4DIR-101" target="jcl1m7gDw0Rb6p7N4DIR-101">
          <mxGeometry relative="1" as="geometry">
            <Array as="points">
              <mxPoint x="940" y="1510" />
              <mxPoint x="940" y="1570" />
              <mxPoint x="780" y="1570" />
              <mxPoint x="780" y="1510" />
            </Array>
          </mxGeometry>
        </mxCell>
        <mxCell id="jcl1m7gDw0Rb6p7N4DIR-126" style="edgeStyle=orthogonalEdgeStyle;shape=connector;curved=1;rounded=0;orthogonalLoop=1;jettySize=auto;html=1;exitX=1;exitY=0.5;exitDx=0;exitDy=0;exitPerimeter=0;entryX=0;entryY=0.5;entryDx=0;entryDy=0;strokeColor=default;align=center;verticalAlign=middle;fontFamily=Helvetica;fontSize=11;fontColor=default;labelBackgroundColor=default;endArrow=none;endFill=0;" edge="1" parent="1" source="jcl1m7gDw0Rb6p7N4DIR-122" target="jcl1m7gDw0Rb6p7N4DIR-32">
          <mxGeometry relative="1" as="geometry">
            <Array as="points">
              <mxPoint x="1287" y="860" />
              <mxPoint x="510" y="860" />
              <mxPoint x="510" y="660" />
            </Array>
          </mxGeometry>
        </mxCell>
        <mxCell id="jcl1m7gDw0Rb6p7N4DIR-122" value="" style="line;strokeWidth=2;direction=south;html=1;fontFamily=Helvetica;fontSize=11;fontColor=default;labelBackgroundColor=default;" vertex="1" parent="1">
          <mxGeometry x="1285" y="810" width="5" height="10" as="geometry" />
        </mxCell>
        <mxCell id="jcl1m7gDw0Rb6p7N4DIR-123" style="edgeStyle=orthogonalEdgeStyle;shape=connector;curved=1;rounded=0;orthogonalLoop=1;jettySize=auto;html=1;exitX=1;exitY=0.5;exitDx=0;exitDy=0;entryX=0;entryY=0.5;entryDx=0;entryDy=0;entryPerimeter=0;strokeColor=default;align=center;verticalAlign=middle;fontFamily=Helvetica;fontSize=11;fontColor=default;labelBackgroundColor=default;endArrow=none;endFill=0;" edge="1" parent="1" source="jcl1m7gDw0Rb6p7N4DIR-36" target="jcl1m7gDw0Rb6p7N4DIR-122">
          <mxGeometry relative="1" as="geometry" />
        </mxCell>
        <mxCell id="jcl1m7gDw0Rb6p7N4DIR-124" style="edgeStyle=orthogonalEdgeStyle;shape=connector;curved=1;rounded=0;orthogonalLoop=1;jettySize=auto;html=1;exitX=1;exitY=0.5;exitDx=0;exitDy=0;entryX=0;entryY=0.5;entryDx=0;entryDy=0;entryPerimeter=0;strokeColor=default;align=center;verticalAlign=middle;fontFamily=Helvetica;fontSize=11;fontColor=default;labelBackgroundColor=default;endArrow=none;endFill=0;" edge="1" parent="1" source="jcl1m7gDw0Rb6p7N4DIR-22" target="jcl1m7gDw0Rb6p7N4DIR-122">
          <mxGeometry relative="1" as="geometry" />
        </mxCell>
        <mxCell id="jcl1m7gDw0Rb6p7N4DIR-125" style="edgeStyle=orthogonalEdgeStyle;shape=connector;curved=1;rounded=0;orthogonalLoop=1;jettySize=auto;html=1;exitX=1;exitY=0.5;exitDx=0;exitDy=0;entryX=0;entryY=0.5;entryDx=0;entryDy=0;entryPerimeter=0;strokeColor=default;align=center;verticalAlign=middle;fontFamily=Helvetica;fontSize=11;fontColor=default;labelBackgroundColor=default;endArrow=none;endFill=0;" edge="1" parent="1" source="jcl1m7gDw0Rb6p7N4DIR-8" target="jcl1m7gDw0Rb6p7N4DIR-122">
          <mxGeometry relative="1" as="geometry" />
        </mxCell>
        <mxCell id="jcl1m7gDw0Rb6p7N4DIR-128" style="edgeStyle=orthogonalEdgeStyle;shape=connector;curved=1;rounded=0;orthogonalLoop=1;jettySize=auto;html=1;exitX=1;exitY=0.5;exitDx=0;exitDy=0;entryX=0;entryY=0.5;entryDx=0;entryDy=0;strokeColor=default;align=center;verticalAlign=middle;fontFamily=Helvetica;fontSize=11;fontColor=default;labelBackgroundColor=default;endArrow=none;endFill=0;" edge="1" parent="1" source="jcl1m7gDw0Rb6p7N4DIR-127" target="pF6RH-sHoKkm_YnTqQ9y-3">
          <mxGeometry relative="1" as="geometry" />
        </mxCell>
        <mxCell id="jcl1m7gDw0Rb6p7N4DIR-127" value="&lt;b&gt;Begin&lt;/b&gt;" style="rounded=0;whiteSpace=wrap;html=1;" vertex="1" parent="1">
          <mxGeometry x="290" y="570" width="60" height="60" as="geometry" />
        </mxCell>
        <mxCell id="jcl1m7gDw0Rb6p7N4DIR-129" value="&lt;b&gt;End&lt;/b&gt;" style="rounded=0;whiteSpace=wrap;html=1;" vertex="1" parent="1">
          <mxGeometry x="1305" y="575" width="60" height="50" as="geometry" />
        </mxCell>
        <mxCell id="jcl1m7gDw0Rb6p7N4DIR-132" value="" style="edgeStyle=orthogonalEdgeStyle;rounded=0;orthogonalLoop=1;jettySize=auto;html=1;exitX=1;exitY=0.5;exitDx=0;exitDy=0;entryX=0;entryY=0.5;entryDx=0;entryDy=0;curved=1;endArrow=none;endFill=0;" edge="1" parent="1" source="jcl1m7gDw0Rb6p7N4DIR-32" target="jcl1m7gDw0Rb6p7N4DIR-131">
          <mxGeometry relative="1" as="geometry">
            <mxPoint x="610" y="660" as="sourcePoint" />
            <mxPoint x="660" y="660" as="targetPoint" />
          </mxGeometry>
        </mxCell>
        <mxCell id="jcl1m7gDw0Rb6p7N4DIR-131" value="" style="line;strokeWidth=2;html=1;fontFamily=Helvetica;fontSize=11;fontColor=default;labelBackgroundColor=default;" vertex="1" parent="1">
          <mxGeometry x="620" y="655" width="10" height="10" as="geometry" />
        </mxCell>
        <mxCell id="jcl1m7gDw0Rb6p7N4DIR-135" style="edgeStyle=orthogonalEdgeStyle;shape=connector;curved=1;rounded=0;orthogonalLoop=1;jettySize=auto;html=1;exitX=1;exitY=0.5;exitDx=0;exitDy=0;entryX=0;entryY=0.5;entryDx=0;entryDy=0;strokeColor=default;align=center;verticalAlign=middle;fontFamily=Helvetica;fontSize=11;fontColor=default;labelBackgroundColor=default;endArrow=none;endFill=0;" edge="1" parent="1" source="jcl1m7gDw0Rb6p7N4DIR-24" target="jcl1m7gDw0Rb6p7N4DIR-24">
          <mxGeometry relative="1" as="geometry">
            <Array as="points">
              <mxPoint x="1130" y="780" />
              <mxPoint x="1130" y="820" />
              <mxPoint x="1020" y="820" />
              <mxPoint x="1020" y="780" />
            </Array>
          </mxGeometry>
        </mxCell>
        <mxCell id="jcl1m7gDw0Rb6p7N4DIR-138" style="edgeStyle=orthogonalEdgeStyle;shape=connector;curved=1;rounded=0;orthogonalLoop=1;jettySize=auto;html=1;exitX=1;exitY=0.5;exitDx=0;exitDy=0;exitPerimeter=0;entryX=0;entryY=0.5;entryDx=0;entryDy=0;strokeColor=default;align=center;verticalAlign=middle;fontFamily=Helvetica;fontSize=11;fontColor=default;labelBackgroundColor=default;endArrow=none;endFill=0;" edge="1" parent="1" source="jcl1m7gDw0Rb6p7N4DIR-136" target="pF6RH-sHoKkm_YnTqQ9y-18">
          <mxGeometry relative="1" as="geometry" />
        </mxCell>
        <mxCell id="jcl1m7gDw0Rb6p7N4DIR-136" value="" style="line;strokeWidth=2;html=1;fontFamily=Helvetica;fontSize=11;fontColor=default;labelBackgroundColor=default;" vertex="1" parent="1">
          <mxGeometry x="685" y="595" width="10" height="10" as="geometry" />
        </mxCell>
        <mxCell id="jcl1m7gDw0Rb6p7N4DIR-137" style="edgeStyle=orthogonalEdgeStyle;shape=connector;curved=1;rounded=0;orthogonalLoop=1;jettySize=auto;html=1;exitX=1;exitY=0.5;exitDx=0;exitDy=0;entryX=0;entryY=0.5;entryDx=0;entryDy=0;entryPerimeter=0;strokeColor=default;align=center;verticalAlign=middle;fontFamily=Helvetica;fontSize=11;fontColor=default;labelBackgroundColor=default;endArrow=none;endFill=0;" edge="1" parent="1" source="pF6RH-sHoKkm_YnTqQ9y-15" target="jcl1m7gDw0Rb6p7N4DIR-136">
          <mxGeometry relative="1" as="geometry" />
        </mxCell>
        <mxCell id="jcl1m7gDw0Rb6p7N4DIR-139" style="edgeStyle=orthogonalEdgeStyle;shape=connector;curved=1;rounded=0;orthogonalLoop=1;jettySize=auto;html=1;exitX=1;exitY=0.5;exitDx=0;exitDy=0;exitPerimeter=0;entryX=0;entryY=0.5;entryDx=0;entryDy=0;entryPerimeter=0;strokeColor=default;align=center;verticalAlign=middle;fontFamily=Helvetica;fontSize=11;fontColor=default;labelBackgroundColor=default;endArrow=none;endFill=0;" edge="1" parent="1" source="jcl1m7gDw0Rb6p7N4DIR-131" target="jcl1m7gDw0Rb6p7N4DIR-136">
          <mxGeometry relative="1" as="geometry" />
        </mxCell>
        <mxCell id="jcl1m7gDw0Rb6p7N4DIR-141" value="&lt;div&gt;&lt;font size=&quot;1&quot;&gt;&lt;b style=&quot;font-size: 18px;&quot;&gt;Magic values&amp;nbsp;&lt;/b&gt;&lt;/font&gt;&lt;/div&gt;&lt;div&gt;&lt;font size=&quot;1&quot;&gt;&lt;b style=&quot;font-size: 18px;&quot;&gt;(state changing flags)&lt;/b&gt;&lt;/font&gt;&lt;/div&gt;" style="rounded=0;whiteSpace=wrap;html=1;" vertex="1" parent="1">
          <mxGeometry x="762.5" y="1650" width="190" height="60" as="geometry" />
        </mxCell>
        <mxCell id="jcl1m7gDw0Rb6p7N4DIR-144" value="&lt;b&gt;{&lt;/b&gt;" style="rounded=0;whiteSpace=wrap;html=1;" vertex="1" parent="1">
          <mxGeometry x="696.25" y="1750" width="37.5" height="40" as="geometry" />
        </mxCell>
        <mxCell id="jcl1m7gDw0Rb6p7N4DIR-145" value="COMPOUND_NODE_BEGIN_FLAG" style="rounded=0;whiteSpace=wrap;html=1;" vertex="1" parent="1">
          <mxGeometry x="733.75" y="1750" width="280" height="40" as="geometry" />
        </mxCell>
        <mxCell id="jcl1m7gDw0Rb6p7N4DIR-149" value="&lt;b&gt;}&lt;/b&gt;" style="rounded=0;whiteSpace=wrap;html=1;" vertex="1" parent="1">
          <mxGeometry x="696.25" y="1790" width="37.5" height="40" as="geometry" />
        </mxCell>
        <mxCell id="jcl1m7gDw0Rb6p7N4DIR-150" value="COMPOUND_NODE_END_FLAG" style="rounded=0;whiteSpace=wrap;html=1;" vertex="1" parent="1">
          <mxGeometry x="733.75" y="1790" width="280" height="40" as="geometry" />
        </mxCell>
        <mxCell id="jcl1m7gDw0Rb6p7N4DIR-151" value="&lt;b&gt;,&lt;/b&gt;" style="rounded=0;whiteSpace=wrap;html=1;" vertex="1" parent="1">
          <mxGeometry x="696.25" y="1830" width="37.5" height="40" as="geometry" />
        </mxCell>
        <mxCell id="jcl1m7gDw0Rb6p7N4DIR-152" value="COMPOUND_NODE_BEGIN_STRING_FLAG" style="rounded=0;whiteSpace=wrap;html=1;" vertex="1" parent="1">
          <mxGeometry x="733.75" y="1830" width="280" height="40" as="geometry" />
        </mxCell>
        <mxCell id="jcl1m7gDw0Rb6p7N4DIR-153" value="&lt;b&gt;:&lt;/b&gt;" style="rounded=0;whiteSpace=wrap;html=1;" vertex="1" parent="1">
          <mxGeometry x="696.25" y="1870" width="37.5" height="40" as="geometry" />
        </mxCell>
        <mxCell id="jcl1m7gDw0Rb6p7N4DIR-154" value="COMPOUND_NODE_BEGIN_ELEMENT_FLAG" style="rounded=0;whiteSpace=wrap;html=1;" vertex="1" parent="1">
          <mxGeometry x="733.75" y="1870" width="280" height="40" as="geometry" />
        </mxCell>
        <mxCell id="jcl1m7gDw0Rb6p7N4DIR-155" value="&lt;b&gt;-&lt;/b&gt;" style="rounded=0;whiteSpace=wrap;html=1;" vertex="1" parent="1">
          <mxGeometry x="696.25" y="1910" width="37.5" height="40" as="geometry" />
        </mxCell>
        <mxCell id="jcl1m7gDw0Rb6p7N4DIR-156" value="COMPOUND_NODE_BEGIN_BLOCK_FLAG" style="rounded=0;whiteSpace=wrap;html=1;" vertex="1" parent="1">
          <mxGeometry x="733.75" y="1910" width="280" height="40" as="geometry" />
        </mxCell>
        <mxCell id="jcl1m7gDw0Rb6p7N4DIR-157" value="&lt;b&gt;[&lt;/b&gt;" style="rounded=0;whiteSpace=wrap;html=1;" vertex="1" parent="1">
          <mxGeometry x="696.25" y="1950" width="37.5" height="40" as="geometry" />
        </mxCell>
        <mxCell id="jcl1m7gDw0Rb6p7N4DIR-158" value="COMPOUND_NODE_BEGIN_LIST_FLAG" style="rounded=0;whiteSpace=wrap;html=1;" vertex="1" parent="1">
          <mxGeometry x="733.75" y="1950" width="280" height="40" as="geometry" />
        </mxCell>
        <mxCell id="jcl1m7gDw0Rb6p7N4DIR-159" value="&lt;b&gt;]&lt;/b&gt;" style="rounded=0;whiteSpace=wrap;html=1;" vertex="1" parent="1">
          <mxGeometry x="696.25" y="1990" width="37.5" height="40" as="geometry" />
        </mxCell>
        <mxCell id="jcl1m7gDw0Rb6p7N4DIR-160" value="COMPOUND_NODE_END_LIST_FLAG" style="rounded=0;whiteSpace=wrap;html=1;" vertex="1" parent="1">
          <mxGeometry x="733.75" y="1990" width="280" height="40" as="geometry" />
        </mxCell>
      </root>
    </mxGraphModel>
  </diagram>
</mxfile>
